<svg xmlns="http://www.w3.org/2000/svg" viewBox="0 0 31.33 31.33">
  <defs>
    <style>
      .cls-1 {
        fill: #3983e5;
      }

      .cls-2 {
        fill: #fff;
      }
    </style>
  </defs>
  <g id="Ebene_2" data-name="Ebene 2">
    <g id="Ebene_1-2" data-name="Ebene 1">
      <rect class="cls-1" x="2.62" y="2.62" width="26.08" height="26.08" rx="6.69" transform="translate(15.66 -6.49) rotate(45)"/>
      <path class="cls-2" d="M11.33,8.14h0A2.8,2.8,0,0,0,9.3,9L4,14.72a1.7,1.7,0,0,0,0,2.4L9.3,22.9a2.8,2.8,0,0,0,2,.81h0c2.06,0,3.25-1.89,2-3.22l-3.13-3.37a1.7,1.7,0,0,1,0-2.4l3.13-3.37C14.58,10,13.39,8.14,11.33,8.14Z"/>
      <path class="cls-2" d="M20.55,8.14h0a2.76,2.76,0,0,0-2,.81l-5.35,5.77a1.7,1.7,0,0,0,0,2.4l5.35,5.78a2.76,2.76,0,0,0,2,.81h0c2.07,0,3.25-1.89,2-3.22l-3.12-3.37a1.7,1.7,0,0,1,0-2.4l3.12-3.37C23.8,10,22.62,8.14,20.55,8.14Z"/>
    </g>
  </g>
</svg>
